<?xml version="1.0" encoding="UTF-8" standalone="no"?><!DOCTYPE svg PUBLIC "-//W3C//DTD SVG 1.1//EN" "http://www.w3.org/Graphics/SVG/1.1/DTD/svg11.dtd"><svg width="100%" height="100%" viewBox="0 0 468 263" version="1.1" xmlns="http://www.w3.org/2000/svg" xmlns:xlink="http://www.w3.org/1999/xlink" xml:space="preserve" xmlns:serif="http://www.serif.com/" style="fill-rule:evenodd;clip-rule:evenodd;stroke-linejoin:round;stroke-miterlimit:2;"><g id="Background"><path d="M66.577,155.161l-0.395,-0.034l-0.157,0.253l-0.083,0.253l-0.141,0.253c-0.53,0.477 -0.403,0.551 -3.023,8.383c-4.968,14.852 -2.699,29.761 -2.309,32.324c0.987,6.485 4.287,15.399 6.024,18.202c5.097,8.224 9.062,15.122 23.549,24.451c8.262,5.321 17.101,7.692 18.674,8.114c3.38,0.907 17.081,5.004 35.619,1.491c2.233,-0.423 4.92,-1.258 5.581,-1.17c0.449,0.06 0.342,-0.23 0.762,-0.336c0.647,-0.164 0.64,-0.11 1.265,-0.319c1.054,-0.351 0.915,0.167 1.055,0.286c-5.444,2.226 -23.154,8.087 -43.549,7.318c-44.656,-1.685 -68.754,-29.722 -70.638,-31.63c0.085,-0.165 0.352,-0.179 0.437,-0.344c0.001,-0.001 -0.333,-0.619 -0.414,-0.725c-0.748,-0.99 -4.903,-6.487 -7.344,-13.666c-2.352,-6.919 -1.966,-7.028 -2.214,-7.612c-1.002,-2.363 -0.802,-5.884 -1.215,-7.597c-1.019,-4.226 -0.218,-13.033 -0.115,-14.161c1.25,-13.75 4.579,-17.734 5.28,-22.014c0.752,-0.683 0.519,-0.93 1.983,-3.97c16.631,-34.531 52.633,-60.148 60.17,-65.699c0.705,-0.519 0.732,-0.453 8.973,-6.272c0.232,-0.164 9.123,-6.442 3.213,-1.531c-0.62,0.515 -0.732,0.339 -7.916,6.239c-8.452,6.941 -26.968,24.556 -33.583,32.901c-0.735,0.927 -17.635,19.664 -24.441,40.105c-7.638,22.94 -3.313,33.795 6.796,46.361c1.457,1.811 7.344,7.887 7.867,7.463c0.335,-0.271 -0.034,-0.355 -1.242,-5.242c-4.507,-18.235 -0.922,-40.576 11.251,-59.635c7.509,-11.757 8.202,-11.45 11.908,-15.901c1.925,-2.312 2.261,-2.057 2.394,-1.855c0.215,0.325 -9.305,12.146 -14.024,25.316Z" style="fill:#f15bb5;"/><path d="M173.39,21.671c0.416,0.402 0.443,0.363 0.704,0.751c7.246,10.804 12.536,12.507 14.818,15.331c-2.374,2.503 -6.388,8.056 -13.787,14.073c-4.899,3.984 -6.098,5.236 -18.702,13.657c-1.856,1.241 -2.116,1.86 -3.88,0.504c-1.575,-1.211 -1.444,-1.367 -3.159,-2.354c0,0 -0.497,-0.551 -0.541,-0.599c0.267,-0.288 2.774,-2.649 5.898,-5.008c11.404,-9.387 11.874,-9.22 11.806,-10.129c-0.044,-0.578 -3.018,-3.519 -3.539,-3.963c-1.029,-0.876 -1.341,0.388 -10.143,9.446c-0.649,0.664 -4.694,5.042 -6.458,6.464c-0.473,-0.41 -0.412,-0.436 -0.659,-1.025c-0.564,-1.344 -3.058,-3.327 -2.264,-4.665c2.39,-4.025 2.507,-3.926 5.053,-7.861c5.828,-9.009 19.648,-21.771 24.853,-24.621Z"/><path d="M188.911,37.753c2.324,0.895 3.915,2.067 4.225,2.295l0.184,0.147c-0.7,1.023 -1.021,1.967 -1.791,3.048c-9.609,13.492 -16.53,15.422 -18.598,17.54c-1.039,1.064 -2.016,11.666 -2.485,13.672c-0.611,2.615 0.003,2.963 -1.663,4.428c-11.951,10.507 -11.924,11.052 -12.478,10.661c-0.366,-0.258 0.396,-11.108 -0.203,-16.373c-0.244,-2.144 -0.273,-5.98 -1.835,-4.73c-2.395,1.916 -2.675,2.501 -3.569,1.684c-3.64,-3.328 -4.092,-2.966 -4.355,-4.016c-0.087,-0.208 -0.469,-0.592 -0.515,-0.638c1.541,-1.447 2.495,-1.877 3.015,-2.437c0.043,0.048 0.541,0.599 0.541,0.599c1.715,0.988 1.584,1.143 3.159,2.354c1.764,1.356 2.023,0.737 3.88,-0.504c12.603,-8.421 13.803,-9.672 18.702,-13.657c7.399,-6.017 11.412,-11.569 13.787,-14.073Z" style="fill:#9a5de5;"/><path d="M171.261,17.39l0.158,0.204c0.772,1.386 1.598,3.469 1.74,3.78c0.077,0.099 0.154,0.198 0.231,0.297c-5.205,2.85 -19.025,15.611 -24.853,24.621c-2.546,3.936 -2.663,3.836 -5.053,7.861c-0.794,1.338 1.7,3.321 2.264,4.665c0.247,0.589 0.186,0.614 0.659,1.025c-0.252,0.255 -0.431,0.5 -0.465,0.546c-0.178,-0.072 -0.143,-0.407 -0.321,-0.48c-0.549,-0.223 -0.221,0.591 -1.266,0.876c-0.393,0.107 -0.301,0.447 -0.315,0.464c-0.041,0.053 -0.156,-0.012 -0.199,0.039c-0.049,0.057 0.018,0.161 -0.023,0.224c-0.031,0.047 -0.34,0.148 -0.473,0.11c-0.096,-0.027 -0.161,-0.197 -0.253,-0.158c-0.147,0.061 -0.14,0.321 -0.287,0.382c-0.287,-0.285 -1.63,-1.618 -2.88,-4.152c-1.377,-2.791 3.224,-5.316 0.381,-5.434c-8.209,-0.341 -17.212,-0.137 -18.708,-0.103c-0.128,0.003 -0.927,-0.222 -0.194,-0.922c4.523,-4.319 10.483,-11.079 12.13,-12.102c0.54,-0.336 0.561,-0.336 7.784,-1.628c3.523,-0.63 6.178,-0.942 7.067,-1.096c2.117,-0.367 1.761,-1.008 4.652,-4.385c7.515,-8.779 14.233,-12.346 18.224,-14.633Z" style="fill:#9a5de5;"/><path d="M174.672,15.696c5.247,-2.386 5.322,-2.149 8.362,-3.267c5.666,-2.084 17.603,-3.831 18.494,-3.52c0.337,0.118 0.378,1.655 0.382,1.803c0.322,12.077 -5.487,23.907 -6.425,25.818c-0.114,0.008 -0.179,-0.186 -0.293,-0.178c-0.051,0.004 0.099,0.179 -0.506,0.392c-0.21,0.074 -0.212,0.056 -0.3,0.27c-0.075,0.182 -0.134,0.411 -0.307,0.506c-0.086,0.048 -0.083,-0.182 -0.15,-0.254c-0.039,-0.042 -0.048,-0.019 -0.606,-0.392c-5.022,-3.357 -4.79,-3.65 -6.051,-4.544c-6.468,-4.588 -13.454,-14.973 -13.149,-15.549c0.065,-0.122 0.264,-0.131 0.329,-0.253l0.239,-0.253l0.268,-0.186l-0.288,-0.392Z" style="fill:#f15bb5;"/><path d="M152.865,53.378c0.172,0.058 0.171,0.365 0.344,0.424c0.106,0.036 0.146,-0.187 0.253,-0.221c0.072,-0.023 0.144,0.097 0.216,0.072c0.054,-0.019 -0.17,-0.237 0.499,-0.52c0.308,-0.131 0.492,-0.539 0.873,-0.835c0.391,-0.303 4.642,-3.6 4.899,-3.775c3.135,-2.138 2.053,0.907 1.75,1.291c-3.795,4.811 -6.168,5.513 -7.322,7.939l0.365,0.271c-3.124,2.359 -5.631,4.72 -5.898,5.008c-0.52,0.56 -1.474,0.99 -3.015,2.437c-0.124,0.089 -6.443,5.107 -6.552,5.683c-0.229,1.204 1.025,1.597 -0.521,2.999c-0.549,0.498 -1.981,1.798 -8.085,4.529c-3.354,1.501 -0.319,-1.459 3.088,-7.004c1.042,-1.696 2.997,-1.436 5.031,-3.558c4.383,-4.572 4.517,-4.813 4.796,-5.313l0.245,-0.259c0.854,-0.671 1.081,-0.998 2.112,-2.159c0.034,-0.046 0.213,-0.29 0.465,-0.546c1.764,-1.422 5.809,-5.801 6.458,-6.464Z" style="fill:#f15bb5;"/><path d="M174.672,15.696l0.288,0.392l-0.268,0.186l-0.239,0.253c-0.065,0.122 -0.264,0.131 -0.329,0.253c-0.305,0.576 6.681,10.961 13.149,15.549c1.26,0.894 1.028,1.187 6.051,4.544c0.558,0.373 0.567,0.35 0.606,0.392c0.068,0.072 0.064,0.301 0.15,0.254c0.173,-0.095 0.232,-0.323 0.307,-0.506c0.088,-0.214 0.09,-0.196 0.3,-0.27c0.605,-0.213 0.455,-0.388 0.506,-0.392c0.114,-0.008 0.179,0.186 0.293,0.178c-1.242,2.381 -1.298,2.335 -2.166,3.666l-0.184,-0.147c-0.31,-0.228 -1.901,-1.4 -4.225,-2.295c-2.281,-2.824 -7.572,-4.527 -14.818,-15.331c-0.26,-0.388 -0.288,-0.349 -0.704,-0.751l-0.231,-0.297c-0.143,-0.311 -0.969,-2.394 -1.74,-3.78l-0.158,-0.204c1.132,-0.767 1.257,-0.617 3.411,-1.695Z" style="fill:#f15bb5;"/><path d="M152.865,53.378c8.802,-9.058 9.114,-10.322 10.143,-9.446c0.521,0.444 3.495,3.385 3.539,3.963c0.069,0.908 -0.401,0.742 -11.806,10.129l-0.365,-0.271c1.154,-2.425 3.527,-3.128 7.322,-7.939c0.302,-0.383 1.384,-3.429 -1.75,-1.291c-0.257,0.175 -4.508,3.472 -4.899,3.775c-0.381,0.295 -0.565,0.704 -0.873,0.835c-0.668,0.283 -0.444,0.501 -0.499,0.52c-0.072,0.025 -0.144,-0.095 -0.216,-0.072c-0.107,0.034 -0.147,0.257 -0.253,0.221c-0.172,-0.058 -0.171,-0.365 -0.344,-0.424Z" style="fill:#9a5de5;"/><path id="Yellow-Star-1" serif:id="Yellow Star 1" d="M97.261,48.909c-0.191,-0.943 -0.292,-2.81 -2.254,-3.744c-1.768,-0.841 -3.615,-0.985 -3.748,-1.095c-0.845,-0.696 1.773,-0.871 2.495,-1.06c4.211,-1.105 3.455,-5.633 3.92,-6.447c0.635,-1.113 0.789,1.488 1.49,3.457c1.603,4.504 6.172,2.612 6.044,3.83c-0.04,0.375 -0.219,0.218 -1.577,0.473c-6.165,1.157 -4.489,4.81 -5.365,6.57c-0.631,1.269 -0.86,-1.334 -1.005,-1.984Z" style="fill:#fee43e;"/><path id="Blue-Star-2" serif:id="Blue Star 2" d="M130.962,113.1c-0.162,-0.023 -4.112,-0.573 -1.861,-0.835c6.34,-0.737 3.475,-5.362 4.893,-5.229c1.335,0.125 -1.653,4.051 4.555,5.066c1.013,0.165 0.561,0.694 0.223,0.718c-5.842,0.403 -3.781,4.29 -4.748,4.936c-1.13,0.755 0.338,-3.566 -3.063,-4.655Z" style="fill:#00bbfa;"/><path id="Blue-Star-1" serif:id="Blue Star 1" d="M81.26,85.169c-0.221,0.275 -0.132,0.448 -0.917,0.562c-2.242,0.325 -3.462,0.246 -4.112,4.37c-0.086,0.547 -0.631,0.878 -0.701,0.292c-0.054,-0.459 -0.028,-2.694 -1.555,-3.978c-1.035,-0.87 -3.806,-0.521 -3.172,-1.284c0.142,-0.171 3.093,0.177 4.196,-1.862c0.42,-0.777 0.428,-3.339 1.025,-3.153c0.446,0.139 0.079,4.694 3.855,4.88c0.737,0.036 0.74,-0.065 1.38,0.173Z" style="fill:#00bbfa;"/><path d="M143.394,75.539c-0.443,0.285 -1.463,1.06 -1.575,0.427c-0.175,-0.992 4.45,-8.417 5.532,-7.29c2.531,2.637 2.588,2.671 2.526,2.977c-0.149,0.73 -0.537,0.377 -6.482,3.887Z" style="fill:#f15bb5;"/><path d="M137.21,59.707c0.005,-0.005 0.929,-1.406 1.794,-0.402c1.581,1.835 2.911,3.206 -0.756,4.678c-0.408,0.164 -5.817,1.623 -5.907,0.847c-0.039,-0.338 4.236,-4.538 4.869,-5.123Z" style="fill:#f15bb5;"/><path id="Yellow-Star-2" serif:id="Yellow Star 2" d="M107.61,92.925c0.638,2.645 3.883,1.408 3.052,2.45c-0.482,0.604 -2.648,-0.582 -3.101,2.57c-0.212,1.477 -0.808,0.574 -0.828,0.5c-0.108,-0.413 -0.149,-0.841 -0.234,-1.259c-0.143,-0.705 -0.808,-1.195 -1.071,-1.284c-1.298,-0.441 -1.495,-0.284 -1.517,-0.72c-0.041,-0.791 2.393,-0.055 2.782,-2.774c0.408,-2.852 0.904,0.434 0.917,0.517Z" style="fill:#fee43e;"/><path d="M145.942,60.388c-1.031,1.161 -1.258,1.488 -2.112,2.159l-0.157,0.028c-0.807,-0.671 -0.807,-0.665 -0.868,-0.73c0.147,-0.061 0.139,-0.321 0.287,-0.382c0.092,-0.038 0.157,0.131 0.253,0.158c0.133,0.038 0.442,-0.063 0.473,-0.11c0.041,-0.063 -0.025,-0.167 0.023,-0.224c0.044,-0.052 0.158,0.014 0.199,-0.039c0.014,-0.018 -0.078,-0.357 0.315,-0.464c1.046,-0.285 0.717,-1.099 1.266,-0.876c0.178,0.073 0.143,0.408 0.321,0.48Z" style="fill:#9a5de5;"/><path d="M143.673,62.575l0.157,-0.028l-0.245,0.259l0.089,-0.231Z" style="fill:#9a5de5;"/></g><g id="Yellow-Curve-1" serif:id="Yellow Curve 1"><path d="M66.577,155.161c-1.336,4.618 -1.49,4.569 -2.205,9.313c-8.891,58.974 54.915,82.248 99.447,76.037c3.761,-0.525 3.727,-0.611 6.092,-1.24c0.381,-0.101 0.498,-0.084 0.485,0.327c-0.004,0.107 -8.267,4.344 -12.098,5.66c-1.58,0.543 -4.878,1.883 -5.299,2.054c-0.141,-0.119 -0.002,-0.638 -1.055,-0.286c-0.625,0.208 -0.617,0.155 -1.265,0.319c-0.419,0.106 -0.313,0.396 -0.762,0.336c-0.661,-0.089 -3.348,0.747 -5.581,1.17c-18.538,3.513 -32.239,-0.584 -35.619,-1.491c-1.573,-0.422 -10.412,-2.794 -18.674,-8.114c-14.487,-9.329 -18.452,-16.227 -23.549,-24.451c-1.737,-2.803 -5.037,-11.717 -6.024,-18.202c-0.39,-2.563 -2.659,-17.472 2.309,-32.324c2.619,-7.832 2.493,-7.906 3.023,-8.383l0.141,-0.253l0.083,-0.253l0.157,-0.253l0.395,0.034Z" style="fill:#fee43e;"/></g><g id="Yellow-curve-2" serif:id="Yellow curve 2"><path d="M126.413,89.635c2.95,-2.692 10.35,-9.265 10.839,-9.296c0.701,-0.044 -0.74,1.277 -0.835,1.364c-6.666,6.112 -6.609,6.146 -12.855,12.671c-13.944,14.564 -22.528,24.612 -31.023,34.222c-2.314,2.618 -6.307,7.918 -6.4,7.944c-1.016,0.277 0.323,-1.475 0.402,-1.578c8.737,-11.434 14.415,-21.612 39.872,-45.327Z" style="fill:#fee43e;"/></g><g id="Blue-Curve-1" serif:id="Blue Curve 1"><path d="M33.227,156.88c-0.702,4.28 -4.03,8.264 -5.28,22.014c-0.103,1.128 -0.904,9.935 0.115,14.161c0.413,1.714 0.213,5.234 1.215,7.597c0.248,0.584 -0.138,0.693 2.214,7.612c2.44,7.179 6.595,12.676 7.344,13.666c0.08,0.106 0.414,0.724 0.414,0.725c-0.085,0.165 -0.352,0.179 -0.437,0.344c-3.817,-3.842 -10.987,-12.881 -15.112,-21.582c-2.062,-4.349 -15.128,-29.608 -4.586,-61.735c1.133,-3.451 7.127,-21.719 23.9,-38.598c10.364,-10.429 12.929,-10.838 19.916,-12.929c0.176,-0.053 0.163,-0.017 2.257,-0.388c2.478,-0.438 -0.094,1.056 -3.906,5.796c-4.498,5.593 -12.868,14.676 -20.934,32.701c-5.247,11.723 -7.382,27.138 -7.119,30.615Z" style="fill:#00bbfa;"/></g><g><path d="M60.377,63.568c0.202,-0.962 -0.02,-1.221 0.514,-1.233c0.348,-0.008 0.286,0.107 0.329,0.449c0.184,1.462 0.202,1.434 0.613,2.829c1.173,3.981 5.704,2.733 5.711,3.776c0.009,1.46 -5.49,-1.582 -6.4,6.32c-0.105,0.916 -0.648,0.793 -0.74,0.496c-0.819,-2.633 1.04,-5.052 -5.387,-6.447c-1.699,-0.369 -0.276,-0.887 -0.203,-0.899c4.317,-0.704 4.669,-1.116 5.564,-5.291Z" style="fill:#f15bb5;"/></g><g><path d="M125.302,78.191c-2.493,4.019 -3.333,5.447 -3.614,5.926c-0.081,0.138 -1.657,2.819 -1.598,1.202c0.003,-0.073 2.564,-6.293 9.778,-15.018c0.012,-0.014 1.954,-2.692 1.708,-1.454c-0.202,1.023 -2.098,2.438 -6.274,9.343Z" style="fill:#fee43e;"/></g><g transform="matrix(2.34618,0,0,2.34618,-1206.781291,-1128.657878)"><g transform="matrix(50,0,0,50,554.45651,570.329881)"><path d="M0.545,-0l-0.064,-0.17l-0.243,0l0.032,-0.096l0.176,0l-0.158,-0.422l0.111,0l0.263,0.688l-0.117,-0Zm-0.524,-0l0.235,-0.659l0.056,0.151l-0.177,0.507l-0.114,-0Z" style="fill:#00bbfa;fill-rule:nonzero;"/></g><g transform="matrix(50,0,0,50,588.65651,570.329881)"><path d="M0.246,-0l0,-0.095l0.139,0c0.03,-0 0.054,-0.003 0.071,-0.009c0.017,-0.006 0.029,-0.017 0.036,-0.032c0.007,-0.015 0.01,-0.035 0.01,-0.061c0,-0.026 -0.004,-0.046 -0.011,-0.061c-0.007,-0.015 -0.019,-0.026 -0.036,-0.032c-0.017,-0.006 -0.04,-0.01 -0.069,-0.01l-0.139,0l0,-0.096l0.134,0c0.027,0 0.049,-0.003 0.066,-0.01c0.017,-0.007 0.029,-0.017 0.036,-0.032c0.008,-0.014 0.012,-0.033 0.012,-0.056c0,-0.025 -0.003,-0.045 -0.01,-0.059c-0.006,-0.014 -0.018,-0.025 -0.034,-0.03c-0.016,-0.006 -0.04,-0.009 -0.07,-0.009l-0.134,0l0,-0.096l0.173,0c0.045,0 0.082,0.007 0.109,0.02c0.028,0.014 0.047,0.033 0.06,0.059c0.012,0.026 0.019,0.057 0.019,0.094c0,0.031 -0.004,0.057 -0.012,0.079c-0.008,0.022 -0.021,0.04 -0.038,0.053c-0.017,0.014 -0.04,0.023 -0.067,0.029l0,0.004c0.032,0.006 0.058,0.016 0.076,0.031c0.018,0.015 0.031,0.033 0.038,0.056c0.007,0.023 0.011,0.05 0.011,0.08c0,0.026 -0.003,0.05 -0.009,0.072c-0.006,0.022 -0.016,0.041 -0.031,0.058c-0.014,0.016 -0.034,0.029 -0.06,0.038c-0.025,0.009 -0.057,0.014 -0.097,0.014l-0.172,-0Zm-0.154,-0l0,-0.688l0.113,0l0,0.688l-0.113,-0Z" style="fill:#f15bb5;fill-rule:nonzero;"/></g><g transform="matrix(50,0,0,50,622.60651,570.329881)"><path d="M0.246,-0l0,-0.096l0.061,0c0.037,0 0.068,-0.001 0.092,-0.003c0.024,-0.002 0.044,-0.006 0.058,-0.014c0.014,-0.007 0.025,-0.02 0.031,-0.037c0.006,-0.018 0.011,-0.042 0.012,-0.074c0.002,-0.031 0.003,-0.072 0.003,-0.121c0,-0.049 -0.001,-0.089 -0.003,-0.12c-0.002,-0.031 -0.006,-0.056 -0.013,-0.073c-0.007,-0.018 -0.017,-0.03 -0.032,-0.038c-0.014,-0.008 -0.033,-0.012 -0.058,-0.014c-0.024,-0.002 -0.055,-0.003 -0.092,-0.003l-0.061,0l0,-0.096l0.072,0c0.058,0 0.105,0.003 0.142,0.009c0.037,0.006 0.066,0.016 0.088,0.031c0.021,0.015 0.037,0.035 0.047,0.061c0.01,0.026 0.016,0.059 0.019,0.099c0.003,0.04 0.004,0.088 0.004,0.145c0,0.057 -0.001,0.105 -0.004,0.145c-0.003,0.04 -0.009,0.073 -0.019,0.099c-0.01,0.026 -0.025,0.046 -0.047,0.061c-0.021,0.015 -0.051,0.025 -0.088,0.031c-0.037,0.006 -0.084,0.009 -0.142,0.009l-0.072,-0Zm-0.154,-0l0,-0.688l0.113,0l0,0.688l-0.113,-0Z" style="fill:#9a5de5;fill-rule:nonzero;"/></g><g transform="matrix(50,0,0,50,656.90651,570.329881)"><path d="M0.296,0.008c-0.043,0 -0.079,-0.003 -0.108,-0.009c-0.029,-0.006 -0.052,-0.015 -0.069,-0.028c-0.017,-0.013 -0.03,-0.029 -0.039,-0.05c-0.009,-0.02 -0.014,-0.045 -0.017,-0.074c-0.003,-0.029 -0.004,-0.063 -0.004,-0.102c0,-0.034 0.001,-0.065 0.004,-0.092c0.002,-0.027 0.007,-0.051 0.014,-0.071c0.007,-0.02 0.018,-0.037 0.032,-0.051c0.014,-0.014 0.033,-0.025 0.057,-0.032l0,0.28c0,0.029 0.001,0.053 0.004,0.072c0.003,0.018 0.009,0.032 0.019,0.042c0.01,0.01 0.025,0.017 0.046,0.02c0.021,0.004 0.049,0.005 0.086,0.005c0.015,0 0.032,-0 0.05,-0.001c0.018,-0.001 0.037,-0.002 0.056,-0.004c0.019,-0.002 0.036,-0.003 0.052,-0.005l0,0.083c-0.014,0.003 -0.032,0.005 -0.053,0.007c-0.021,0.002 -0.042,0.004 -0.065,0.005c-0.023,0.001 -0.044,0.002 -0.065,0.002Zm-0.089,-0.228l0,-0.073l0.19,0l0,-0.006c0,-0.029 -0.002,-0.053 -0.005,-0.07c-0.004,-0.018 -0.01,-0.031 -0.018,-0.039c-0.008,-0.009 -0.02,-0.015 -0.034,-0.017c-0.014,-0.003 -0.032,-0.004 -0.053,-0.004c-0.018,0 -0.033,0.001 -0.046,0.002c-0.013,0.002 -0.024,0.004 -0.033,0.008l0,-0.092c0.012,-0.002 0.024,-0.004 0.037,-0.005c0.013,-0.001 0.028,-0.002 0.044,-0.002c0.041,0 0.074,0.003 0.1,0.01c0.026,0.006 0.046,0.016 0.061,0.03c0.015,0.013 0.026,0.03 0.033,0.051c0.007,0.021 0.011,0.046 0.013,0.075c0.002,0.029 0.003,0.062 0.003,0.098l0,0.035l-0.292,0Z" style="fill:#9a5de5;fill-rule:nonzero;"/></g><g transform="matrix(50,0,0,50,684.80651,570.329881)"><path d="M0.199,-0l-0.176,-0.51l0.111,0l0.165,0.51l-0.099,-0Zm0.139,-0.008l-0.048,-0.155l0.113,-0.347l0.109,0l-0.174,0.502Z" style="fill:#9a5de5;fill-rule:nonzero;"/></g><g transform="matrix(50,0,0,50,711.50651,570.329881)"></g></g></svg>