<?xml version="1.0" encoding="UTF-8" standalone="no"?>
<!DOCTYPE svg PUBLIC "-//W3C//DTD SVG 1.1//EN" "http://www.w3.org/Graphics/SVG/1.1/DTD/svg11.dtd">
<svg width="100%" height="100%" viewBox="0 0 1024 1024" version="1.1" xmlns="http://www.w3.org/2000/svg" xmlns:xlink="http://www.w3.org/1999/xlink" xml:space="preserve" xmlns:serif="http://www.serif.com/" style="fill-rule:evenodd;clip-rule:evenodd;stroke-linejoin:round;stroke-miterlimit:2;">
    <g transform="matrix(0.157236,0,0,0.157236,512,512)">
        <g transform="matrix(1,0,0,1,-3256.25,-3256.25)">
            <g id="Background" transform="matrix(6.359863,0,0,6.359863,0,8.333333)">
                <g transform="matrix(2.600739,0,0,2.600739,-1377.750843,35.949978)">
                    <path d="M768.294,76.841C769.939,78.43 770.047,78.275 771.076,79.81C799.724,122.526 820.642,129.259 829.662,140.425C820.274,150.323 804.406,172.276 775.152,196.066C755.781,211.82 751.04,216.767 701.208,250.063C693.868,254.968 692.843,257.417 685.869,252.054C679.641,247.265 680.159,246.65 673.379,242.745C673.379,242.745 671.412,240.565 671.241,240.375C672.296,239.235 682.21,229.902 694.561,220.573C739.652,183.457 741.51,184.117 741.238,180.525C741.066,178.24 729.307,166.61 727.246,164.856C723.177,161.394 721.944,166.391 687.141,202.204C684.575,204.828 668.58,222.141 661.607,227.763C659.737,226.14 659.979,226.039 659.003,223.712C656.775,218.398 646.911,210.559 650.052,205.269C659.501,189.355 659.964,189.748 670.031,174.187C693.074,138.566 747.714,88.11 768.294,76.841Z"/>
                </g>
                <g transform="matrix(2.600739,0,0,2.600739,-1377.750843,35.949978)">
                    <path d="M829.662,140.425C838.851,143.963 845.142,148.598 846.366,149.5L847.093,150.081C844.326,154.124 843.055,157.86 840.013,162.132C802.021,215.479 774.658,223.108 766.48,231.481C762.371,235.688 758.508,277.608 756.656,285.537C754.241,295.877 756.668,297.253 750.082,303.043C702.831,344.585 702.936,346.741 700.747,345.194C699.301,344.172 702.313,301.275 699.944,280.458C698.979,271.981 698.864,256.814 692.687,261.755C683.218,269.33 682.109,271.643 678.576,268.412C664.186,255.253 662.395,256.683 661.357,252.534C661.012,251.71 659.503,250.195 659.32,250.011C665.412,244.289 669.185,242.59 671.241,240.375C671.412,240.565 673.379,242.745 673.379,242.745C680.159,246.65 679.641,247.265 685.869,252.054C692.843,257.417 693.868,254.968 701.208,250.063C751.04,216.767 755.781,211.82 775.152,196.066C804.406,172.276 820.274,150.323 829.662,140.425Z" style="fill:rgb(154,93,229);"/>
                </g>
                <g transform="matrix(2.600739,0,0,2.600739,-1377.750843,35.949978)">
                    <path d="M759.877,59.915L760.5,60.723C763.551,66.203 766.817,74.44 767.381,75.668C767.685,76.059 767.99,76.45 768.294,76.841C747.714,88.11 693.074,138.566 670.031,174.187C659.964,189.748 659.501,189.355 650.052,205.269C646.911,210.559 656.775,218.398 659.003,223.712C659.979,226.039 659.737,226.14 661.607,227.763C660.612,228.773 659.904,229.738 659.77,229.92C659.065,229.634 659.205,228.309 658.5,228.022C656.329,227.14 657.627,230.359 653.493,231.485C651.938,231.908 652.302,233.251 652.248,233.321C652.084,233.532 651.633,233.272 651.461,233.477C651.269,233.704 651.531,234.114 651.369,234.363C651.248,234.548 650.026,234.948 649.5,234.796C649.122,234.688 648.863,234.019 648.5,234.17C647.918,234.41 647.948,235.439 647.367,235.68C646.232,234.554 640.922,229.281 635.981,219.264C630.538,208.228 648.728,198.246 637.489,197.78C605.031,196.433 569.436,197.238 563.52,197.372C563.013,197.383 559.854,196.495 562.754,193.726C580.636,176.648 604.203,149.92 610.714,145.878C612.851,144.551 612.933,144.548 641.489,139.443C655.417,136.953 665.916,135.717 669.431,135.108C677.8,133.657 676.394,131.123 687.824,117.771C717.538,83.06 744.1,68.959 759.877,59.915Z" style="fill:rgb(154,93,229);"/>
                </g>
                <g transform="matrix(2.600739,0,0,2.600739,-1377.750843,35.949978)">
                    <path d="M773.363,53.215C794.109,43.781 794.404,44.717 806.423,40.297C828.827,32.059 876.022,25.148 879.547,26.381C880.881,26.848 881.043,32.925 881.059,33.508C882.332,81.258 859.366,128.032 855.657,135.586C855.207,135.618 854.95,134.851 854.5,134.883C854.298,134.898 854.893,135.59 852.5,136.432C851.671,136.724 851.663,136.655 851.314,137.5C851.016,138.221 850.783,139.124 850.1,139.5C849.759,139.688 849.773,138.779 849.506,138.496C849.35,138.33 849.317,138.421 847.11,136.945C827.253,123.672 828.17,122.514 823.187,118.978C797.613,100.836 769.992,59.776 771.198,57.5C771.454,57.017 772.241,56.983 772.497,56.5L773.442,55.5L774.5,54.763L773.363,53.215Z" style="fill:rgb(241,91,181);"/>
                </g>
                <g transform="matrix(2.600739,0,0,2.600739,-1377.750843,35.949978)">
                    <path d="M687.141,202.204C687.822,202.435 687.819,203.649 688.5,203.879C688.92,204.022 689.078,203.138 689.5,203.004C689.786,202.913 690.071,203.388 690.355,203.289C690.57,203.214 689.683,202.353 692.326,201.233C693.544,200.716 694.272,199.1 695.777,197.933C697.323,196.734 714.13,183.701 715.146,183.008C727.54,174.555 723.262,186.596 722.067,188.111C707.063,207.132 697.681,209.91 693.118,219.5L694.561,220.573C682.21,229.902 672.296,239.235 671.241,240.375C669.185,242.59 665.412,244.289 659.32,250.011C658.829,250.361 633.846,270.202 633.413,272.481C632.507,277.243 637.464,278.796 631.354,284.34C629.184,286.31 623.52,291.449 599.387,302.248C586.125,308.182 598.124,296.479 611.595,274.556C615.714,267.852 623.446,268.877 631.488,260.488C648.816,242.412 649.347,241.458 650.449,239.481L651.419,238.457C654.797,235.803 655.692,234.511 659.77,229.92C659.904,229.738 660.612,228.773 661.607,227.763C668.58,222.141 684.575,204.828 687.141,202.204Z" style="fill:rgb(241,91,181);"/>
                </g>
                <g transform="matrix(2.600739,0,0,2.600739,-1377.750843,35.949978)">
                    <path d="M773.363,53.215L774.5,54.763L773.442,55.5L772.497,56.5C772.241,56.983 771.454,57.017 771.198,57.5C769.992,59.776 797.613,100.836 823.187,118.978C828.17,122.514 827.253,123.672 847.11,136.945C849.317,138.421 849.35,138.33 849.506,138.496C849.773,138.779 849.759,139.688 850.1,139.5C850.783,139.124 851.016,138.221 851.314,137.5C851.663,136.655 851.671,136.724 852.5,136.432C854.893,135.59 854.298,134.898 854.5,134.883C854.95,134.851 855.207,135.618 855.657,135.586C850.746,145 850.526,144.82 847.093,150.081L846.366,149.5C845.142,148.598 838.851,143.963 829.662,140.425C820.642,129.259 799.724,122.526 771.076,79.81C770.047,78.275 769.939,78.43 768.294,76.841L767.381,75.668C766.817,74.44 763.551,66.203 760.5,60.723L759.877,59.915C764.354,56.881 764.845,57.475 773.363,53.215Z" style="fill:rgb(241,91,181);"/>
                </g>
                <g transform="matrix(2.600739,0,0,2.600739,-1377.750843,35.949978)">
                    <path d="M687.141,202.204C721.944,166.391 723.177,161.394 727.246,164.856C729.307,166.61 741.066,178.24 741.238,180.525C741.51,184.117 739.652,183.457 694.561,220.573L693.118,219.5C697.681,209.91 707.063,207.132 722.067,188.111C723.262,186.596 727.54,174.555 715.146,183.008C714.13,183.701 697.323,196.734 695.777,197.933C694.272,199.1 693.544,200.716 692.326,201.233C689.683,202.353 690.57,203.214 690.355,203.289C690.071,203.388 689.786,202.913 689.5,203.004C689.078,203.138 688.92,204.022 688.5,203.879C687.819,203.649 687.822,202.435 687.141,202.204Z" style="fill:rgb(154,93,229);"/>
                </g>
                <g id="Yellow-Star-1" serif:id="Yellow Star 1" transform="matrix(1.688351,0,0,1.688351,-581.669365,-173.048267)">
                    <path d="M467.294,184.536C466.537,180.806 466.14,173.425 458.384,169.734C451.395,166.408 444.092,165.838 443.566,165.406C440.226,162.654 450.578,161.963 453.429,161.214C470.078,156.845 467.091,138.941 468.927,135.724C471.438,131.325 472.047,141.608 474.818,149.393C481.157,167.2 499.223,159.719 498.714,164.538C498.557,166.021 497.847,165.4 492.479,166.407C468.103,170.98 474.73,185.423 471.268,192.382C468.772,197.4 467.869,187.107 467.294,184.536Z" style="fill:rgb(254,228,62);"/>
                </g>
                <g id="Blue-Star-2" serif:id="Blue Star 2" transform="matrix(1.688351,0,0,1.688351,-185.212534,-70.562057)">
                    <path d="M600.54,438.333C599.901,438.244 584.28,436.067 593.183,435.031C618.249,432.116 606.922,413.832 612.53,414.355C617.807,414.848 605.996,430.373 630.54,434.385C634.544,435.039 632.759,437.13 631.422,437.222C608.322,438.814 616.471,454.185 612.649,456.739C608.181,459.725 613.984,442.641 600.54,438.333Z" style="fill:rgb(0,187,250);"/>
                </g>
                <g id="Blue-Star-1" serif:id="Blue Star 1" transform="matrix(1.688351,0,0,1.688351,-562.168071,344.030343)">
                    <path d="M404.03,327.9C403.157,328.989 403.51,329.673 400.403,330.124C391.539,331.409 386.716,331.098 384.145,347.404C383.804,349.568 381.649,350.877 381.374,348.559C381.159,346.745 381.265,337.906 375.225,332.832C371.132,329.393 360.178,330.771 362.685,327.754C363.246,327.079 374.914,328.454 379.277,320.39C380.938,317.319 380.968,307.189 383.33,307.923C385.092,308.471 383.644,326.483 398.573,327.216C401.487,327.359 401.5,326.96 404.03,327.9Z" style="fill:rgb(0,187,250);"/>
                </g>
                <g transform="matrix(2.600739,0,0,2.600739,-1377.750843,35.949978)">
                    <path d="M649.695,289.823C647.945,290.95 643.91,294.016 643.468,291.51C642.775,287.586 661.062,258.23 665.339,262.686C675.348,273.114 675.573,273.246 675.325,274.456C674.734,277.343 673.202,275.947 649.695,289.823Z" style="fill:rgb(241,91,181);"/>
                </g>
                <g transform="matrix(2.600739,0,0,2.600739,-1377.750843,35.949978)">
                    <path d="M625.247,227.229C625.267,227.21 628.919,221.669 632.339,225.64C638.59,232.897 643.848,238.317 629.351,244.136C627.736,244.785 606.353,250.554 605.997,247.485C605.842,246.147 622.745,229.543 625.247,227.229Z" style="fill:rgb(241,91,181);"/>
                </g>
                <g id="Yellow-Star-2" serif:id="Yellow Star 2" transform="matrix(1.688351,0,0,1.688351,-156.270678,305.043123)">
                    <path d="M508.21,358.565C510.734,369.021 523.561,364.131 520.276,368.251C518.371,370.64 509.808,365.948 508.017,378.413C507.179,384.253 504.823,380.684 504.745,380.388C504.319,378.755 504.155,377.064 503.819,375.41C503.253,372.622 500.626,370.687 499.584,370.333C494.45,368.589 493.675,369.212 493.585,367.488C493.421,364.359 503.045,367.272 504.584,356.52C506.198,345.242 508.16,358.236 508.21,358.565Z" style="fill:rgb(254,228,62);"/>
                </g>
                <g transform="matrix(2.600739,0,0,2.600739,-1377.750843,35.949978)">
                    <path d="M659.77,229.92C655.692,234.511 654.797,235.803 651.419,238.457L650.8,238.567C647.608,235.914 647.611,235.938 647.367,235.68C647.948,235.439 647.918,234.41 648.5,234.17C648.863,234.019 649.122,234.688 649.5,234.796C650.026,234.948 651.248,234.548 651.369,234.363C651.531,234.114 651.269,233.704 651.461,233.477C651.633,233.272 652.084,233.532 652.248,233.321C652.302,233.251 651.938,231.908 653.493,231.485C657.627,230.359 656.329,227.14 658.5,228.022C659.205,228.309 659.065,229.634 659.77,229.92Z" style="fill:rgb(154,93,229);"/>
                </g>
                <g transform="matrix(2.600739,0,0,2.600739,-1377.750843,35.949978)">
                    <path d="M650.8,238.567L651.419,238.457L650.449,239.481L650.8,238.567Z" style="fill:rgb(154,93,229);"/>
                </g>
            </g>
            <g id="Yellow-Curve-1" serif:id="Yellow Curve 1">
            </g>
            <g id="Yellow-curve-2" serif:id="Yellow curve 2">
            </g>
            <g id="Blue-Curve-1" serif:id="Blue Curve 1">
            </g>
            <g transform="matrix(10.737679,0,0,10.737679,-1492.821302,-1231.333972)">
                <path d="M321.462,242.493C322.26,238.689 321.383,237.666 323.494,237.619C324.871,237.588 324.625,238.043 324.796,239.396C325.524,245.176 325.596,245.067 327.221,250.58C331.86,266.32 349.773,261.384 349.8,265.509C349.837,271.281 328.094,259.256 324.494,290.499C324.077,294.121 321.932,293.633 321.567,292.461C318.33,282.049 325.68,272.485 300.267,266.969C293.548,265.511 299.175,263.46 299.463,263.413C316.533,260.628 317.923,259.002 321.462,242.493Z" style="fill:rgb(241,91,181);"/>
            </g>
            <g transform="matrix(10.737679,0,0,10.737679,-4930.281841,2402.959684)">
                <path d="M578.163,300.312C568.307,316.202 564.986,321.85 563.873,323.742C563.553,324.287 557.32,334.887 557.554,328.496C557.565,328.208 567.691,303.614 596.216,269.119C596.262,269.063 603.94,258.474 602.97,263.372C602.17,267.417 594.676,273.011 578.163,300.312Z" style="fill:rgb(254,228,62);"/>
            </g>
        </g>
    </g>
</svg>
